PathFileType	4	(X/Y/Z)	C:\Users\ebm\Documents\Erivelton\Erivelton2\wc5.trc
DataRate	CameraRate	NumFrames	NumMarkers	Units	OrigDataRate	OrigDataStartFrame	OrigNumFrames
150.00	150.00	      11	28	mm	150.00	704	      1126
Frame#	Time	IJ			PX			C7			T8			RAC			RAS			RPS			RAI			RPI			RLE			RME			RRS			RUS			R3M			R5M			LAC			LAS			LPS			LAI			LPI			LLE			LME			LRS			LUS			L3M			L5M			RW			LW			V_mid_elbow_r			V_mid_elbow_l			V_mid_wrist_r			V_mid_wrist_l			V_mid_trunk_low			V_mid_trunk_upp			
		X1	Y1	Z1	X2	Y2	Z2	X3	Y3	Z3	X4	Y4	Z4	X5	Y5	Z5	X6	Y6	Z6	X7	Y7	Z7	X8	Y8	Z8	X9	Y9	Z9	X10	Y10	Z10	X11	Y11	Z11	X12	Y12	Z12	X13	Y13	Z13	X14	Y14	Z14	X15	Y15	Z15	X16	Y16	Z16	X17	Y17	Z17	X18	Y18	Z18	X19	Y19	Z19	X20	Y20	Z20	X21	Y21	Z21	X22	Y22	Z22	X23	Y23	Z23	X24	Y24	Z24	X25	Y25	Z25	X26	Y26	Z26	X27	Y27	Z27	X28	Y28	Z28	

704	4.687	1399.27966	1006.57391	-2.40166	1366.82446	837.56488	11.58746	1297.89111	1130.67798	-6.16066	1188.75793	1007.57819	8.40143	1363.34485	1057.40747	202.68903	1343.03162	879.96039	283.18948	1298.09900	899.90546	294.85928	1330.60425	811.38672	318.76862	1281.92395	829.74231	332.37122	1279.10120	761.83594	353.21078	1239.80652	737.94031	288.01904	1459.55933	555.32349	316.69000	1415.20337	543.56732	354.13107	1469.79248	473.80167	354.03610	1431.23303	468.38800	360.98849	1342.75574	1052.71838	-190.77086	1309.83569	903.48083	-279.12537	1262.42041	908.03638	-273.27774	1306.78357	829.70581	-312.28009	1252.39197	829.79749	-305.27408	1281.89661	746.26630	-344.07172	1235.83887	726.34521	-287.42212	1453.27161	536.12549	-312.28882	1405.43848	514.05939	-349.21262	1448.80542	441.77802	-340.28293	1409.36133	451.35535	-346.82346	1236.80408	303.19049	320.26993	1232.29529	299.67883	-308.58316	
705	4.693	1409.81384	1006.95184	-2.47271	1378.10059	837.90198	11.30742	1308.33496	1130.80151	-6.52629	1199.29749	1007.30536	8.02531	1372.75305	1058.77051	202.57628	1348.81677	882.73859	284.91058	1304.16077	903.77484	295.65216	1334.40735	814.91077	321.28409	1286.02112	834.41547	333.72266	1281.92786	766.71423	355.60895	1242.73474	742.71924	290.19052	1462.22668	560.56818	319.51627	1417.68701	548.19385	356.59177	1473.13794	479.19666	356.65869	1434.55139	473.08588	363.30673	1352.52039	1053.71692	-190.93393	1316.40979	906.09802	-280.13159	1269.47168	911.12140	-273.65720	1312.24622	832.77448	-314.12613	1257.93323	833.60126	-306.39383	1285.93799	749.89392	-346.64661	1238.92920	730.25262	-290.30710	1458.38196	541.21613	-314.43808	1410.73694	518.08325	-350.87469	1456.41235	447.41736	-342.86575	1416.52429	455.17084	-348.24750	1248.71802	303.14978	319.89856	1244.17920	299.52386	-308.76065	
706	4.700	1420.59973	1007.24896	-2.58983	1389.19971	838.05542	11.15407	1318.71216	1130.85107	-6.86050	1210.03857	1006.89026	7.69631	1382.15613	1059.98499	202.43658	1354.51587	885.57141	286.46359	1310.23621	907.58380	296.19727	1338.22168	818.57611	323.51843	1290.11340	839.17041	335.12146	1284.70532	771.65521	357.85861	1245.70581	747.63812	292.12936	1464.62134	565.30548	322.27942	1419.82227	553.38318	359.19550	1476.33740	484.51123	359.20016	1438.64978	476.78860	364.56482	1362.37317	1054.63672	-191.13130	1323.42468	908.77136	-281.08627	1276.70142	914.26508	-273.88541	1317.53552	835.92297	-316.06714	1263.40356	837.47211	-307.38324	1289.90930	753.64032	-349.11856	1243.69543	733.60443	-292.06229	1463.42334	546.28235	-316.73758	1415.93286	522.22638	-352.55310	1463.27576	452.41650	-344.36374	1423.37427	459.23969	-349.70633	1260.78906	302.88742	319.63815	1256.00806	299.33078	-308.93463	
707	4.707	1431.29968	1007.43036	-2.72941	1400.45691	838.18329	10.89957	1329.22522	1130.83044	-7.24609	1220.65027	1006.49017	7.18805	1391.61047	1061.11682	202.19405	1360.37146	888.32806	287.95343	1316.43896	911.38550	296.79919	1342.01965	822.07043	325.68445	1294.21960	843.98657	336.25497	1287.39343	776.76111	359.99359	1248.70544	752.59045	293.88840	1466.87048	570.76801	324.89230	1422.23584	558.30334	361.44702	1479.49365	489.61206	361.19330	1441.93079	481.42126	366.58365	1372.29529	1055.47900	-191.28317	1330.37244	911.31726	-281.99756	1283.81726	917.44977	-274.01044	1322.74353	839.14130	-317.83109	1268.81567	841.44800	-308.16873	1293.68469	757.53693	-351.45810	1247.71729	737.26166	-293.94370	1468.02612	551.53540	-318.40897	1420.92957	526.48773	-354.00357	1470.42383	457.80655	-345.50565	1430.19006	463.28003	-350.91116	1272.81091	302.99646	319.66599	1267.78674	299.12799	-309.19922	
708	4.713	1442.13770	1007.48859	-2.85479	1411.75439	838.19836	10.76157	1339.74536	1130.72144	-7.58363	1231.41272	1006.08301	6.74806	1401.10083	1062.06445	201.94691	1366.12915	891.05066	289.33990	1322.60303	915.17932	297.26398	1345.81238	825.73181	327.58636	1298.36072	848.84741	337.32986	1290.08008	781.95355	361.99734	1251.61023	757.74890	295.56357	1468.88708	575.42059	326.70029	1424.66016	562.99329	363.88489	1482.44250	494.53958	362.83475	1445.00916	485.99200	368.42297	1382.36365	1056.27319	-191.41434	1337.32605	913.98035	-282.63583	1291.08496	920.71472	-273.98581	1327.89148	842.49225	-319.47632	1274.19495	845.54797	-308.72049	1297.40027	761.50592	-353.67181	1251.76074	740.99005	-295.80695	1472.42627	556.77448	-320.71002	1425.69824	530.79102	-355.40955	1477.11584	463.12888	-346.79837	1436.76428	467.18454	-351.96027	1284.98816	302.90216	319.22632	1279.70557	298.93613	-309.33276	
709	4.720	1452.93982	1007.42670	-2.97129	1422.90649	838.10925	10.58211	1350.41321	1130.51721	-7.91588	1242.08838	1005.70294	6.21693	1410.55493	1062.87292	201.59471	1371.79736	893.81042	290.62363	1328.83655	919.04395	297.67215	1349.64636	829.51459	329.32755	1302.56970	853.73138	338.29144	1292.83020	787.28058	363.85635	1254.50208	762.94611	297.21271	1470.98962	580.08807	328.48834	1427.23450	567.63293	365.84094	1485.16980	499.36130	364.33392	1447.89392	490.55771	369.97986	1392.51733	1056.99182	-191.53152	1344.40076	916.71582	-283.65985	1298.31909	923.94910	-273.86319	1332.89551	846.01208	-321.10410	1279.43127	849.70416	-309.19061	1301.06409	765.66559	-355.78253	1255.70361	745.01874	-297.54510	1476.62976	561.84399	-322.66208	1430.08093	534.95135	-356.55688	1483.46069	468.43436	-347.88141	1442.94397	471.45572	-352.85132	1297.10583	302.81046	319.31042	1291.52368	298.74643	-309.51703	
710	4.727	1463.80701	1007.22491	-3.11884	1434.11694	837.94342	10.43772	1361.19653	1130.32410	-8.27639	1252.89807	1005.31165	5.64463	1420.09607	1063.52197	201.23596	1377.64954	896.58447	291.82306	1335.06189	922.81079	297.89145	1353.37610	833.28198	331.22943	1306.86707	858.71649	339.06003	1295.65808	792.68707	365.63831	1257.51721	768.19183	298.72034	1473.00781	584.88983	330.16599	1429.05066	572.50818	367.96277	1487.50208	503.98633	365.62534	1450.58569	495.12311	371.38269	1402.73401	1057.62561	-191.58769	1351.45593	919.38599	-284.19458	1305.60718	927.20264	-273.72943	1337.95667	849.45856	-322.60928	1284.82593	853.89026	-309.53442	1304.79346	769.85535	-357.73172	1259.07947	749.26477	-298.79596	1480.72766	566.95831	-324.33481	1434.19470	538.95563	-357.54987	1489.52686	473.62128	-348.90012	1448.82727	475.59274	-353.58786	1309.41455	302.70724	318.82999	1303.45715	298.54938	-309.72311	
711	4.733	1474.76660	1007.04144	-3.33296	1445.33350	837.78772	10.22819	1372.05432	1130.11780	-8.64546	1264.59436	1004.35822	5.05697	1429.59668	1064.02283	200.86395	1383.33240	899.38745	292.96774	1341.38135	926.56769	298.03925	1357.22937	837.34406	332.96960	1311.20447	863.88708	339.91452	1298.59131	798.21210	367.24911	1260.50952	773.59753	300.16971	1474.77917	589.49854	331.71634	1430.97876	577.15973	369.67792	1489.72766	508.60382	366.64365	1452.95093	499.59778	372.45831	1413.14331	1058.17358	-191.65718	1358.41357	921.79443	-284.52377	1313.05615	930.40387	-273.48172	1343.06250	852.96893	-323.95609	1290.38025	858.12842	-309.78345	1308.58838	774.04468	-359.55087	1263.11365	753.57202	-300.30533	1484.46497	571.90991	-326.06085	1438.03308	542.89172	-358.38565	1495.20801	478.76825	-349.96936	1454.42896	479.62595	-354.25867	1321.69763	302.42004	318.64899	1315.34082	298.45676	-309.92810	
712	4.740	1485.79822	1006.67670	-3.56257	1456.63074	837.57434	10.08854	1383.00562	1129.89673	-8.97002	1275.40283	1003.99182	4.46212	1439.18530	1064.33350	200.44699	1389.17773	902.18268	293.95306	1347.68713	930.36487	298.00748	1361.19714	841.26697	334.50967	1315.58838	869.00861	340.40564	1301.60144	803.81665	368.67593	1263.17114	778.52832	301.75339	1476.35901	594.05438	333.51758	1432.70947	581.88214	371.17862	1492.14917	512.74915	365.73248	1455.02979	504.11682	373.37619	1423.40979	1058.65588	-191.67070	1365.67786	924.70526	-285.32111	1320.51965	933.66809	-273.22562	1348.32129	856.52954	-325.24408	1295.60547	862.53400	-309.98251	1312.54370	778.32404	-361.19318	1267.09521	757.90729	-301.63129	1488.05139	576.38989	-327.51956	1441.69299	546.75452	-359.02762	1500.52856	483.74133	-350.86514	1459.51770	483.58441	-353.92941	1333.91956	302.43411	318.39880	1327.28027	298.32565	-310.09637	
713	4.747	1496.77759	1006.38977	-3.74841	1468.01440	837.37720	9.87452	1393.97314	1129.66858	-9.22730	1286.31274	1003.61090	3.90560	1448.82715	1064.60364	200.06503	1394.98181	905.02960	294.88898	1354.12146	934.10468	297.83047	1365.17041	845.51312	335.97079	1320.16553	874.20624	340.90118	1304.69885	809.51520	369.94873	1267.15601	784.24097	302.54956	1477.98352	598.69641	334.80731	1434.32495	586.30609	372.48526	1494.03918	517.15570	366.37192	1456.88062	508.51907	373.99753	1433.92212	1059.09790	-191.71289	1372.90100	927.22656	-285.28964	1327.70740	935.88910	-270.64026	1353.68115	859.99762	-326.37073	1301.34497	866.88519	-310.08414	1316.48181	782.65948	-362.64218	1271.11047	762.36853	-302.77457	1491.62708	581.14642	-328.42877	1445.30164	550.50275	-359.50317	1505.74097	488.80765	-351.83151	1464.61609	487.61267	-354.12067	1346.12122	302.37921	318.35294	1339.07178	298.19412	-310.31720	
714	4.753	1507.83337	1005.93854	-3.97394	1479.18872	837.06738	9.69563	1405.04285	1129.42871	-9.57716	1297.18945	1003.27960	3.40764	1458.57996	1064.78223	199.74669	1400.94214	907.90808	295.65399	1360.68250	937.84253	297.51563	1369.28137	849.70020	337.27222	1324.86304	879.48083	341.10617	1308.02087	815.25385	370.99084	1270.29749	789.99982	303.62903	1479.47803	603.23584	335.87833	1435.75891	590.74622	373.47781	1495.68994	521.62738	367.05484	1458.58777	512.84076	374.42303	1444.35425	1059.42871	-191.77490	1380.28113	930.00372	-285.75275	1334.87085	939.46222	-270.30200	1359.18689	863.63245	-327.11047	1307.22986	871.22882	-310.03616	1320.45264	787.02087	-363.83527	1275.29944	766.89429	-303.63785	1495.08447	585.76501	-329.93100	1448.84973	554.39691	-359.87161	1510.47290	494.00772	-352.51154	1469.38953	491.70078	-354.29916	1358.37427	302.15903	318.04907	1350.97021	298.15536	-310.51111	
